<mxfile host="app.diagrams.net" modified="2023-05-10T10:51:30.737Z" agent="Mozilla/5.0 (Windows NT 10.0; Win64; x64) AppleWebKit/537.36 (KHTML, like Gecko) Chrome/112.0.0.0 Safari/537.36" etag="IJ4nkwQ1n18WzLRfske-" version="21.2.9" type="github" pages="2">
  <diagram name="페이지-1" id="RJWRBHszBODH7Gme-Zkd">
    <mxGraphModel dx="676" dy="430" grid="1" gridSize="10" guides="1" tooltips="1" connect="1" arrows="1" fold="1" page="1" pageScale="1" pageWidth="827" pageHeight="1169" math="0" shadow="0">
      <root>
        <mxCell id="0" />
        <mxCell id="1" parent="0" />
        <mxCell id="V4B6imUW-ROcuXUJ0-gc-5" value="" style="edgeStyle=orthogonalEdgeStyle;rounded=0;orthogonalLoop=1;jettySize=auto;html=1;" edge="1" parent="1" source="V4B6imUW-ROcuXUJ0-gc-1" target="V4B6imUW-ROcuXUJ0-gc-4">
          <mxGeometry relative="1" as="geometry" />
        </mxCell>
        <mxCell id="V4B6imUW-ROcuXUJ0-gc-1" value="Actor" style="shape=umlActor;verticalLabelPosition=bottom;verticalAlign=top;html=1;outlineConnect=0;" vertex="1" parent="1">
          <mxGeometry x="10" y="290" width="30" height="59" as="geometry" />
        </mxCell>
        <mxCell id="V4B6imUW-ROcuXUJ0-gc-12" value="" style="edgeStyle=orthogonalEdgeStyle;rounded=0;orthogonalLoop=1;jettySize=auto;html=1;" edge="1" parent="1" source="V4B6imUW-ROcuXUJ0-gc-4" target="V4B6imUW-ROcuXUJ0-gc-11">
          <mxGeometry relative="1" as="geometry" />
        </mxCell>
        <mxCell id="V4B6imUW-ROcuXUJ0-gc-4" value="메인페이지&lt;br&gt;(로그인 회원)" style="whiteSpace=wrap;html=1;verticalAlign=top;" vertex="1" parent="1">
          <mxGeometry x="105" y="290.5" width="120" height="59" as="geometry" />
        </mxCell>
        <mxCell id="V4B6imUW-ROcuXUJ0-gc-8" value="" style="edgeStyle=orthogonalEdgeStyle;rounded=0;orthogonalLoop=1;jettySize=auto;html=1;" edge="1" parent="1" source="V4B6imUW-ROcuXUJ0-gc-6" target="V4B6imUW-ROcuXUJ0-gc-7">
          <mxGeometry relative="1" as="geometry" />
        </mxCell>
        <mxCell id="V4B6imUW-ROcuXUJ0-gc-6" value="Actor" style="shape=umlActor;verticalLabelPosition=bottom;verticalAlign=top;html=1;outlineConnect=0;" vertex="1" parent="1">
          <mxGeometry x="90" y="980" width="30" height="60" as="geometry" />
        </mxCell>
        <mxCell id="V4B6imUW-ROcuXUJ0-gc-14" value="" style="edgeStyle=orthogonalEdgeStyle;rounded=0;orthogonalLoop=1;jettySize=auto;html=1;" edge="1" parent="1" source="V4B6imUW-ROcuXUJ0-gc-7" target="V4B6imUW-ROcuXUJ0-gc-13">
          <mxGeometry relative="1" as="geometry" />
        </mxCell>
        <mxCell id="V4B6imUW-ROcuXUJ0-gc-7" value="메인페이지&lt;br&gt;(비회원)" style="whiteSpace=wrap;html=1;verticalAlign=top;" vertex="1" parent="1">
          <mxGeometry x="155" y="980" width="120" height="60" as="geometry" />
        </mxCell>
        <mxCell id="V4B6imUW-ROcuXUJ0-gc-16" value="" style="edgeStyle=orthogonalEdgeStyle;rounded=0;orthogonalLoop=1;jettySize=auto;html=1;" edge="1" parent="1" source="V4B6imUW-ROcuXUJ0-gc-11" target="V4B6imUW-ROcuXUJ0-gc-15">
          <mxGeometry relative="1" as="geometry" />
        </mxCell>
        <mxCell id="V4B6imUW-ROcuXUJ0-gc-19" value="" style="edgeStyle=orthogonalEdgeStyle;rounded=0;orthogonalLoop=1;jettySize=auto;html=1;" edge="1" parent="1" source="V4B6imUW-ROcuXUJ0-gc-11" target="V4B6imUW-ROcuXUJ0-gc-15">
          <mxGeometry relative="1" as="geometry" />
        </mxCell>
        <mxCell id="V4B6imUW-ROcuXUJ0-gc-11" value="&lt;br&gt;추천 여행계획 조회" style="whiteSpace=wrap;html=1;verticalAlign=top;" vertex="1" parent="1">
          <mxGeometry x="330" y="290" width="120" height="59" as="geometry" />
        </mxCell>
        <mxCell id="V4B6imUW-ROcuXUJ0-gc-18" value="" style="edgeStyle=orthogonalEdgeStyle;rounded=0;orthogonalLoop=1;jettySize=auto;html=1;" edge="1" parent="1" source="V4B6imUW-ROcuXUJ0-gc-13" target="V4B6imUW-ROcuXUJ0-gc-17">
          <mxGeometry relative="1" as="geometry" />
        </mxCell>
        <mxCell id="V4B6imUW-ROcuXUJ0-gc-13" value="추천 여행계획 조회" style="whiteSpace=wrap;html=1;verticalAlign=top;" vertex="1" parent="1">
          <mxGeometry x="354" y="980" width="120" height="60" as="geometry" />
        </mxCell>
        <mxCell id="V4B6imUW-ROcuXUJ0-gc-21" value="" style="edgeStyle=orthogonalEdgeStyle;rounded=0;orthogonalLoop=1;jettySize=auto;html=1;" edge="1" parent="1" source="V4B6imUW-ROcuXUJ0-gc-15" target="V4B6imUW-ROcuXUJ0-gc-20">
          <mxGeometry relative="1" as="geometry" />
        </mxCell>
        <mxCell id="V4B6imUW-ROcuXUJ0-gc-28" value="" style="edgeStyle=orthogonalEdgeStyle;rounded=0;orthogonalLoop=1;jettySize=auto;html=1;" edge="1" parent="1" source="V4B6imUW-ROcuXUJ0-gc-15" target="V4B6imUW-ROcuXUJ0-gc-27">
          <mxGeometry relative="1" as="geometry" />
        </mxCell>
        <mxCell id="V4B6imUW-ROcuXUJ0-gc-15" value="일정 짜기 페이지" style="whiteSpace=wrap;html=1;verticalAlign=top;" vertex="1" parent="1">
          <mxGeometry x="514" y="290" width="120" height="60" as="geometry" />
        </mxCell>
        <mxCell id="V4B6imUW-ROcuXUJ0-gc-23" value="" style="edgeStyle=orthogonalEdgeStyle;rounded=0;orthogonalLoop=1;jettySize=auto;html=1;" edge="1" parent="1" source="V4B6imUW-ROcuXUJ0-gc-17">
          <mxGeometry relative="1" as="geometry">
            <mxPoint x="615" y="1105" as="targetPoint" />
          </mxGeometry>
        </mxCell>
        <mxCell id="V4B6imUW-ROcuXUJ0-gc-17" value="일정 짜기 페이지" style="whiteSpace=wrap;html=1;verticalAlign=top;" vertex="1" parent="1">
          <mxGeometry x="570" y="980" width="120" height="60" as="geometry" />
        </mxCell>
        <mxCell id="V4B6imUW-ROcuXUJ0-gc-25" value="" style="edgeStyle=orthogonalEdgeStyle;rounded=0;orthogonalLoop=1;jettySize=auto;html=1;" edge="1" parent="1" source="V4B6imUW-ROcuXUJ0-gc-20" target="V4B6imUW-ROcuXUJ0-gc-24">
          <mxGeometry relative="1" as="geometry" />
        </mxCell>
        <mxCell id="V4B6imUW-ROcuXUJ0-gc-20" value="지도 검색&lt;br&gt;추천 여행지 검색&lt;br&gt;일정짜기" style="whiteSpace=wrap;html=1;verticalAlign=top;" vertex="1" parent="1">
          <mxGeometry x="515" y="170" width="120" height="60" as="geometry" />
        </mxCell>
        <mxCell id="53ncdmD6uxSAKLoOaIhw-12" style="edgeStyle=orthogonalEdgeStyle;rounded=0;orthogonalLoop=1;jettySize=auto;html=1;exitX=0;exitY=0.5;exitDx=0;exitDy=0;" edge="1" parent="1" source="V4B6imUW-ROcuXUJ0-gc-22" target="V4B6imUW-ROcuXUJ0-gc-37">
          <mxGeometry relative="1" as="geometry" />
        </mxCell>
        <mxCell id="V4B6imUW-ROcuXUJ0-gc-22" value="지도 검색&lt;br&gt;추천 여행지 조회&lt;br&gt;일정짜기" style="whiteSpace=wrap;html=1;verticalAlign=top;" vertex="1" parent="1">
          <mxGeometry x="560" y="1100" width="120" height="60" as="geometry" />
        </mxCell>
        <mxCell id="V4B6imUW-ROcuXUJ0-gc-34" style="edgeStyle=orthogonalEdgeStyle;rounded=0;orthogonalLoop=1;jettySize=auto;html=1;entryX=0.5;entryY=0;entryDx=0;entryDy=0;" edge="1" parent="1" source="V4B6imUW-ROcuXUJ0-gc-24" target="V4B6imUW-ROcuXUJ0-gc-29">
          <mxGeometry relative="1" as="geometry" />
        </mxCell>
        <mxCell id="V4B6imUW-ROcuXUJ0-gc-24" value="일정 실시간 저장&lt;br&gt;저장 버튼 누를 시 확장자로 공유 기능 활성" style="whiteSpace=wrap;html=1;verticalAlign=top;" vertex="1" parent="1">
          <mxGeometry x="515" y="60" width="120" height="60" as="geometry" />
        </mxCell>
        <mxCell id="V4B6imUW-ROcuXUJ0-gc-30" value="" style="edgeStyle=orthogonalEdgeStyle;rounded=0;orthogonalLoop=1;jettySize=auto;html=1;" edge="1" parent="1" source="V4B6imUW-ROcuXUJ0-gc-27" target="V4B6imUW-ROcuXUJ0-gc-29">
          <mxGeometry relative="1" as="geometry" />
        </mxCell>
        <mxCell id="V4B6imUW-ROcuXUJ0-gc-27" value="마이페이지" style="whiteSpace=wrap;html=1;verticalAlign=top;" vertex="1" parent="1">
          <mxGeometry x="520" y="430" width="120" height="60" as="geometry" />
        </mxCell>
        <mxCell id="53ncdmD6uxSAKLoOaIhw-13" style="edgeStyle=orthogonalEdgeStyle;rounded=0;orthogonalLoop=1;jettySize=auto;html=1;exitX=0;exitY=0.5;exitDx=0;exitDy=0;" edge="1" parent="1" source="V4B6imUW-ROcuXUJ0-gc-29">
          <mxGeometry relative="1" as="geometry">
            <mxPoint x="100" y="440" as="targetPoint" />
          </mxGeometry>
        </mxCell>
        <mxCell id="V4B6imUW-ROcuXUJ0-gc-29" value="&lt;br&gt;&lt;br&gt;공유하기" style="ellipse;whiteSpace=wrap;html=1;verticalAlign=top;" vertex="1" parent="1">
          <mxGeometry x="225" y="411" width="80" height="79" as="geometry" />
        </mxCell>
        <mxCell id="V4B6imUW-ROcuXUJ0-gc-37" value="일정 저장 버튼 클릭 시 회원가입 알림창" style="whiteSpace=wrap;html=1;verticalAlign=top;" vertex="1" parent="1">
          <mxGeometry x="340" y="1090" width="120" height="60" as="geometry" />
        </mxCell>
        <mxCell id="53ncdmD6uxSAKLoOaIhw-14" style="edgeStyle=orthogonalEdgeStyle;rounded=0;orthogonalLoop=1;jettySize=auto;html=1;entryX=0;entryY=0.5;entryDx=0;entryDy=0;" edge="1" parent="1" source="53ncdmD6uxSAKLoOaIhw-1" target="53ncdmD6uxSAKLoOaIhw-2">
          <mxGeometry relative="1" as="geometry" />
        </mxCell>
        <mxCell id="53ncdmD6uxSAKLoOaIhw-1" value="Actor" style="shape=umlActor;verticalLabelPosition=bottom;verticalAlign=top;html=1;outlineConnect=0;" vertex="1" parent="1">
          <mxGeometry x="40" y="421" width="30" height="59" as="geometry" />
        </mxCell>
        <mxCell id="53ncdmD6uxSAKLoOaIhw-2" value="로그인" style="whiteSpace=wrap;html=1;verticalAlign=top;" vertex="1" parent="1">
          <mxGeometry x="130" y="530" width="120" height="59" as="geometry" />
        </mxCell>
        <mxCell id="53ncdmD6uxSAKLoOaIhw-18" value="" style="edgeStyle=orthogonalEdgeStyle;rounded=0;orthogonalLoop=1;jettySize=auto;html=1;" edge="1" parent="1" source="53ncdmD6uxSAKLoOaIhw-10" target="53ncdmD6uxSAKLoOaIhw-17">
          <mxGeometry relative="1" as="geometry" />
        </mxCell>
        <mxCell id="53ncdmD6uxSAKLoOaIhw-10" value="Actor" style="shape=umlActor;verticalLabelPosition=bottom;verticalAlign=top;html=1;outlineConnect=0;" vertex="1" parent="1">
          <mxGeometry x="80" y="770" width="30" height="60" as="geometry" />
        </mxCell>
        <mxCell id="53ncdmD6uxSAKLoOaIhw-11" value="Actor" style="shape=umlActor;verticalLabelPosition=bottom;verticalAlign=top;html=1;outlineConnect=0;" vertex="1" parent="1">
          <mxGeometry x="540" y="770" width="30" height="60" as="geometry" />
        </mxCell>
        <mxCell id="53ncdmD6uxSAKLoOaIhw-17" value="공유된 일정&lt;br&gt;동시 조회" style="whiteSpace=wrap;html=1;verticalAlign=top;" vertex="1" parent="1">
          <mxGeometry x="260" y="770" width="120" height="60" as="geometry" />
        </mxCell>
        <mxCell id="53ncdmD6uxSAKLoOaIhw-21" value="" style="endArrow=classic;html=1;rounded=0;" edge="1" parent="1" source="53ncdmD6uxSAKLoOaIhw-11">
          <mxGeometry width="50" height="50" relative="1" as="geometry">
            <mxPoint x="500" y="810" as="sourcePoint" />
            <mxPoint x="380" y="800" as="targetPoint" />
          </mxGeometry>
        </mxCell>
      </root>
    </mxGraphModel>
  </diagram>
  <diagram id="2zvMEWMa05EoPO9yR94b" name="페이지-2">
    <mxGraphModel dx="676" dy="430" grid="1" gridSize="10" guides="1" tooltips="1" connect="1" arrows="1" fold="1" page="1" pageScale="1" pageWidth="827" pageHeight="1169" math="0" shadow="0">
      <root>
        <mxCell id="0" />
        <mxCell id="1" parent="0" />
      </root>
    </mxGraphModel>
  </diagram>
</mxfile>
